<?xml version="1.0" encoding="UTF-8"?>
<svg id="Layer_2" data-name="Layer 2" xmlns="http://www.w3.org/2000/svg" viewBox="0 0 685.53 90">
  <defs>
    <style>
      .cls-1 {
        fill: #231f20;
      }

      .cls-2 {
        fill: #a2a0a1;
      }

      .cls-3 {
        fill: #e7da6b;
      }

      .cls-4 {
        fill: #539bc9;
      }
    </style>
  </defs>
  <g>
    <path class="cls-1" d="M114.3,53.57c1.29-.41,2.44-1.33,3.86-4.83l9.06-22.45c.32-.83.28-1.43-.09-2.16l-.41-.97,3.45-1.56,11.32,27.19c1.43,3.45,2.53,4.37,3.5,4.78v.6h-7.13v-.6c1.43-.41,1.06-1.33-.41-4.78l-2.81-6.76h-12.97l-2.71,6.72c-1.2,2.99-1.06,4.51.55,4.83v.6h-5.2v-.6ZM134.36,41.34l-6.3-15.14-6.12,15.14h12.42Z"/>
    <path class="cls-1" d="M146.59,52.47l-.41-5.57.41-.09c1.93,4.37,5.2,6.99,9.38,7.04,2.85,0,4.97-1.7,4.97-4.28,0-3.31-3.22-4.37-6.76-5.52-4.37-1.38-7.5-2.58-7.5-6.76,0-3.63,3.04-6.44,8.37-6.44,2.99,0,5.7.64,7.13,1.24l.18,4.69-.46.09c-1.47-3.31-4.42-5.43-7.68-5.43s-5.15,1.52-5.15,3.86c0,2.9,2.94,4.09,6.58,5.29,3.5,1.15,7.73,2.21,7.73,6.81,0,3.86-2.9,7.13-8.42,7.18-3.68,0-6.85-1.1-8.37-2.12Z"/>
    <path class="cls-1" d="M183.39,53.57c1.38-.41,1.84-1.47,1.79-5.24v-8.65l-6.95-12.61c-1.79-3.27-3.13-4.09-4.09-4.51v-.6h7.27v.6c-1.38.41-.83,1.24,1.01,4.51l6.39,11.41,6.44-11.41c1.56-2.81,1.61-4.19-.14-4.51v-.6h5.47v.6c-1.24.41-2.67,1.24-4.51,4.51l-7.04,12.51v8.74c0,3.77.41,4.83,1.84,5.24v.6h-7.5v-.6Z"/>
    <path class="cls-1" d="M197.97,42.99c0-7.18,5.75-12.15,12.05-12.15,5.7,0,12.01,3.5,12.01,11.69s-6.58,12.1-12.01,12.1c-5.84,0-12.05-3.63-12.05-11.64ZM218.54,45.25c0-5.94-4.19-13.85-10.21-13.53-4.69.18-6.81,4.05-6.81,8.65,0,5.84,3.77,13.3,9.89,13.3,4.92,0,7.13-3.96,7.13-8.42Z"/>
    <path class="cls-1" d="M227,46.26v-8.51c0-3.22-.6-3.68-1.84-4.23v-.51l5.01-2.21.41.32v14.31c0,5.24,1.47,7.59,5.15,7.59,2.71,0,5.2-1.7,7.27-3.91v-11.36c0-3.22-.6-3.68-1.84-4.23v-.51l5.01-2.21.41.32v17.21c0,3.77.41,4.83,1.84,5.24v.6h-3.91c-1.01,0-1.52-.51-1.52-1.84v-2.35c-2.35,2.44-5.52,4.65-8.97,4.65-4.83,0-7.04-3.08-7.04-8.37Z"/>
    <path class="cls-1" d="M272.63,22.57v-.6h7.04v.6c-1.38.41-1.01,1.33.41,4.78l2.48,6.07,2.21-5.98c1.15-3.04.97-4.55-.55-4.88v-.6h5.06v.6c-1.29.41-2.39,1.38-3.68,4.88l-2.58,7.04,6.21,15.04,8-22.08c1.1-2.99.83-4.55-.74-4.88v-.6h5.2v.6c-1.29.41-2.39,1.38-3.68,4.88l-9.62,26.73h-1.29l-6.39-15.6-6.35,15.6h-1.29l-10.17-26.73c-1.33-3.54-2.39-4.46-3.4-4.88v-.6h7.13v.6c-1.43.41-1.1,1.33.23,4.88l8.51,22.17,4.92-12.05-4.19-10.17c-1.38-3.5-2.48-4.42-3.5-4.83Z"/>
    <path class="cls-1" d="M302.9,53.57c1.43-.41,1.84-1.47,1.84-5.24v-10.58c0-3.22-.55-3.68-1.84-4.23v-.51l5.06-2.21.37.32v17.21c0,3.77.46,4.83,1.84,5.24v.6h-7.27v-.6ZM303.72,25.46c0-1.47,1.1-2.58,2.53-2.58s2.53,1.1,2.53,2.58c0,1.38-1.1,2.53-2.53,2.53s-2.53-1.15-2.53-2.53Z"/>
    <path class="cls-1" d="M313.8,52.47l-.41-5.57.41-.09c1.93,4.37,5.2,6.99,9.38,7.04,2.85,0,4.97-1.7,4.97-4.28,0-3.31-3.22-4.37-6.76-5.52-4.37-1.38-7.5-2.58-7.5-6.76,0-3.63,3.04-6.44,8.37-6.44,2.99,0,5.7.64,7.13,1.24l.18,4.69-.46.09c-1.47-3.31-4.42-5.43-7.68-5.43s-5.15,1.52-5.15,3.86c0,2.9,2.94,4.09,6.58,5.29,3.5,1.15,7.73,2.21,7.73,6.81,0,3.86-2.9,7.13-8.42,7.18-3.68,0-6.85-1.1-8.37-2.12Z"/>
    <path class="cls-1" d="M333.48,53.57c1.43-.41,1.84-1.47,1.84-5.24v-24.38c0-3.22-.6-3.68-1.84-4.23v-.51l5.01-2.21.41.32v17.76c2.67-2.16,6.21-4.23,9.75-4.23,4.51,0,7.27,2.62,7.27,8v9.48c0,3.77.46,4.83,1.84,5.24v.6h-7.27v-.6c1.43-.41,1.84-1.47,1.84-5.24v-8.56c0-4.78-2.02-7.41-6.07-7.41-2.53,0-5.01,1.52-7.36,3.45v12.51c0,3.77.46,4.83,1.84,5.24v.6h-7.27v-.6Z"/>
    <path class="cls-4" d="M368.35,22.57v-.6h7.18v.6c-1.38.41-1.06,1.33.32,4.83l8.88,22.77,8.74-22.73c1.15-3.04.97-4.55-.6-4.88v-.6h5.15v.6c-1.24.41-2.39,1.33-3.73,4.83l-10.44,27h-1.29l-10.76-27c-1.38-3.5-2.48-4.42-3.45-4.83Z"/>
    <path class="cls-4" d="M413.39,52.79v-8.28c-1.43,5.66-5.29,10.12-9.85,10.12-3.4,0-6.44-2.07-6.44-6.03,0-4.78,4.83-6.58,10.3-8.1l5.98-1.61c-.23-4.46-2.53-6.53-6.44-6.53-2.76,0-5.43,1.29-7.73,4.09l-.41-.37c2.62-3.27,5.98-5.24,9.98-5.24,5.57,0,8.14,3.08,8.14,8.28v9.2c0,3.77.41,4.83,1.84,5.24v.6h-4c-.92,0-1.38-.51-1.38-1.38ZM405.24,51.92c4.92,0,8.1-6.21,8.14-11.04v-1.38l-5.8,1.56c-3.4.97-7.08,2.48-7.04,6.26,0,2.99,2.07,4.6,4.69,4.6Z"/>
    <path class="cls-4" d="M421.53,43.36c0-7.27,5.8-12.51,12.51-12.51,4.42,0,7.82,1.24,7.82,2.48,0,1.06-1.43,2.48-2.9,2.48-1.15,0-3.31-1.33-6.99-4.23-4.28.74-7.18,4.55-7.18,9.52,0,6.3,3.91,10.63,9.89,10.63,3.54,0,6.07-1.61,8.19-4l.41.41c-2.35,3.22-5.93,6.49-10.86,6.49-5.34,0-10.9-3.86-10.9-11.27Z"/>
    <path class="cls-4" d="M461.64,52.79v-8.28c-1.43,5.66-5.29,10.12-9.85,10.12-3.4,0-6.44-2.07-6.44-6.03,0-4.78,4.83-6.58,10.3-8.1l5.98-1.61c-.23-4.46-2.53-6.53-6.44-6.53-2.76,0-5.43,1.29-7.73,4.09l-.41-.37c2.62-3.27,5.98-5.24,9.98-5.24,5.57,0,8.14,3.08,8.14,8.28v9.2c0,3.77.41,4.83,1.84,5.24v.6h-4c-.92,0-1.38-.51-1.38-1.38ZM453.5,51.92c4.92,0,8.1-6.21,8.14-11.04v-1.38l-5.8,1.56c-3.4.97-7.08,2.48-7.04,6.26,0,2.99,2.07,4.6,4.69,4.6Z"/>
    <path class="cls-4" d="M472.17,48.05v-16.24h-2.94v-.64l5.89-5.66h.64v5.66h6.99l-.23.64h-6.76v16.24c0,3.13,1.29,4.32,3.27,4.32,1.29,0,2.9-.6,4.42-2.39l.41.41c-1.98,2.25-4.32,4.23-7.04,4.23-2.9,0-4.65-1.79-4.65-6.58Z"/>
    <path class="cls-4" d="M485.42,53.57c1.43-.41,1.84-1.47,1.84-5.24v-10.58c0-3.22-.55-3.68-1.84-4.23v-.51l5.06-2.21.37.32v17.21c0,3.77.46,4.83,1.84,5.24v.6h-7.27v-.6ZM486.25,25.46c0-1.47,1.1-2.58,2.53-2.58s2.53,1.1,2.53,2.58c0,1.38-1.1,2.53-2.53,2.53s-2.53-1.15-2.53-2.53Z"/>
    <path class="cls-4" d="M495.95,42.99c0-7.18,5.75-12.15,12.05-12.15,5.7,0,12.01,3.5,12.01,11.69s-6.58,12.1-12.01,12.1c-5.84,0-12.05-3.63-12.05-11.64ZM516.52,45.25c0-5.94-4.19-13.85-10.21-13.53-4.69.18-6.81,4.05-6.81,8.65,0,5.84,3.77,13.3,9.89,13.3,4.92,0,7.13-3.96,7.13-8.42Z"/>
    <path class="cls-4" d="M523.46,53.57c1.43-.41,1.84-1.47,1.84-5.24v-10.58c0-3.22-.55-3.68-1.84-4.23v-.51l5.06-2.21.37.32v3.96c2.67-2.16,6.21-4.23,9.75-4.23,4.51,0,7.27,2.62,7.27,8v9.48c0,3.77.46,4.83,1.84,5.24v.6h-7.27v-.6c1.43-.41,1.84-1.47,1.84-5.24v-8.56c0-4.78-2.02-7.41-6.07-7.41-2.53,0-5.01,1.52-7.36,3.45v12.51c0,3.77.46,4.83,1.84,5.24v.6h-7.27v-.6Z"/>
    <path class="cls-4" d="M550.88,52.47l-.41-5.57.41-.09c1.93,4.37,5.2,6.99,9.38,7.04,2.85,0,4.97-1.7,4.97-4.28,0-3.31-3.22-4.37-6.76-5.52-4.37-1.38-7.5-2.58-7.5-6.76,0-3.63,3.04-6.44,8.37-6.44,2.99,0,5.7.64,7.13,1.24l.18,4.69-.46.09c-1.47-3.31-4.42-5.43-7.68-5.43s-5.15,1.52-5.15,3.86c0,2.9,2.94,4.09,6.58,5.29,3.5,1.15,7.73,2.21,7.73,6.81,0,3.86-2.9,7.13-8.42,7.18-3.68,0-6.86-1.1-8.37-2.12Z"/>
  </g>
  <g>
    <path class="cls-2" d="M166.95,72.43l-.9.43,4.58-11.45c.11-.29.24-.5.4-.62s.38-.18.65-.18h2.61c.19,0,.33.04.43.1.1.07.14.17.14.3,0,.1-.03.19-.1.26-.07.07-.18.13-.34.18l-.63.15c-.26.07-.44.17-.54.3s-.13.37-.11.69l.9,11.65c.01.24.07.41.17.52.1.1.27.18.51.24l.6.15c.15.04.25.09.32.17s.1.16.1.26c0,.12-.05.22-.14.3-.1.08-.24.12-.43.12h-4.85c-.19,0-.33-.04-.43-.11-.1-.07-.14-.17-.14-.3,0-.1.03-.19.1-.26s.18-.13.34-.18l.6-.15c.29-.07.48-.15.57-.26.1-.11.14-.27.12-.48l-.96-11.85.85-.04-4.84,12.18c-.1.27-.2.45-.31.53-.11.08-.23.12-.37.12-.11,0-.21-.02-.3-.05s-.17-.1-.24-.19c-.07-.1-.15-.24-.23-.43l-4.88-11.87.82-.41-1.02,11.73c-.03.3.03.52.18.67.15.14.36.27.65.37l.64.19c.11.04.2.1.27.15.07.06.1.14.1.24,0,.12-.05.23-.14.3-.1.08-.24.12-.43.12h-3.59c-.19,0-.33-.04-.43-.11-.1-.07-.14-.17-.14-.3s.04-.22.13-.29c.08-.07.2-.12.35-.17l.53-.17c.26-.07.46-.19.6-.34.14-.15.22-.38.25-.68l.99-11.34c.03-.29-.01-.52-.12-.68-.11-.16-.3-.27-.56-.34l-.58-.12c-.17-.04-.29-.1-.36-.18-.07-.07-.11-.17-.11-.29,0-.28.19-.42.58-.42h2.56c.26,0,.48.05.63.15.16.1.29.3.4.59l4.55,11.08Z"/>
    <path class="cls-2" d="M177.49,73.73c0-.87.39-1.59,1.17-2.14.78-.56,1.86-.84,3.24-.84.5,0,.96.05,1.38.14.42.09.79.21,1.11.36l-.18.61c-.31-.12-.62-.23-.94-.31s-.67-.13-1.05-.13c-.73,0-1.29.17-1.7.52-.41.34-.62.82-.62,1.42s.17,1.05.5,1.36c.33.31.76.47,1.28.47.49,0,.96-.11,1.42-.34.45-.22.85-.54,1.18-.95l.23.52c-.43.59-.99,1.05-1.68,1.38-.69.33-1.41.49-2.18.49-.93,0-1.69-.23-2.28-.69-.59-.46-.88-1.08-.88-1.85ZM184.06,74.66v-.22l-.14-.07v-6.28c0-.63-.16-1.12-.48-1.45-.32-.34-.77-.51-1.36-.51s-.98.11-1.25.34-.42.5-.42.83v.87c0,.35-.12.62-.35.81s-.55.29-.96.29c-.36,0-.63-.09-.82-.28-.19-.19-.29-.43-.29-.74,0-.45.18-.89.53-1.32.36-.43.87-.78,1.55-1.06.67-.28,1.49-.42,2.45-.42,1.25,0,2.19.27,2.79.81.61.54.91,1.26.91,2.16v5.95c0,.24.05.41.14.52.09.11.22.17.38.17.18,0,.31-.04.39-.13.08-.08.15-.17.2-.25.04-.04.08-.08.12-.12.04-.03.09-.05.15-.05.08,0,.14.03.18.08.04.06.06.13.06.23,0,.21-.07.43-.22.65-.15.22-.36.41-.64.57-.28.15-.63.23-1.05.23-.58,0-1.04-.14-1.37-.41-.33-.28-.5-.68-.5-1.21Z"/>
    <path class="cls-2" d="M189.78,76.02c-.17,0-.28-.03-.35-.1-.06-.07-.09-.16-.09-.28,0-.09.03-.17.09-.23.06-.07.16-.12.29-.15l.52-.12c.15-.04.26-.1.33-.2.07-.1.11-.25.11-.45v-12.54c0-.17-.03-.29-.08-.37-.06-.08-.15-.12-.28-.14l-.74-.03c-.13-.01-.23-.05-.28-.1-.05-.05-.08-.13-.08-.21,0-.1.03-.17.09-.24.06-.06.18-.12.35-.18l1.81-.64c.23-.09.42-.15.57-.19.15-.04.28-.05.4-.05.19,0,.33.05.43.15.1.1.14.25.14.43v14.1c0,.21.04.36.11.46.07.1.18.17.33.2l.48.12c.23.07.35.2.35.37,0,.26-.17.38-.52.38h-3.99ZM192.26,71.21l4.72-3.83c.25-.21.36-.39.34-.55-.02-.16-.18-.27-.46-.33l-.45-.09c-.14-.04-.23-.08-.28-.14s-.07-.14-.07-.24c0-.12.04-.21.13-.27.09-.06.21-.09.36-.09h3.62c.15,0,.27.03.36.1.09.07.13.15.13.26s-.04.2-.11.28c-.07.07-.23.14-.47.19-.36.07-.67.17-.92.31-.26.14-.59.38-1.01.71l-5.65,4.53-.23-.84ZM195.73,68.9l3.89,5.49c.21.28.38.47.53.57.15.1.37.19.67.25.15.06.26.12.33.2.07.07.1.16.1.25,0,.11-.04.2-.13.26-.09.06-.21.09-.35.09h-4.14c-.14,0-.25-.03-.34-.1-.08-.07-.13-.15-.13-.26,0-.09.03-.16.08-.22.05-.06.14-.11.26-.14l.42-.09c.24-.04.37-.13.39-.25.02-.12-.09-.34-.31-.65l-2.88-4.06,1.61-1.34Z"/>
    <path class="cls-2" d="M206.16,66.11v8.37c0,.21.04.36.11.46.07.1.18.17.33.2l.49.11c.13.04.23.1.29.16s.09.14.09.24c0,.12-.04.21-.12.28-.08.07-.21.1-.39.1h-3.99c-.17,0-.29-.03-.37-.1-.08-.07-.12-.16-.12-.28,0-.09.03-.17.09-.23.06-.07.16-.12.29-.15l.52-.12c.15-.04.26-.1.33-.2.07-.1.11-.25.11-.45v-6.81c0-.17-.03-.29-.08-.36-.06-.07-.15-.12-.28-.13l-.74-.03c-.13-.02-.23-.06-.28-.12-.05-.05-.08-.12-.08-.2,0-.1.03-.18.09-.24.06-.07.18-.13.35-.19l1.81-.64c.24-.09.43-.15.58-.19.14-.04.27-.05.37-.05.2,0,.35.05.45.15.1.1.15.25.15.43ZM204.74,63.48c-.48,0-.86-.13-1.16-.4-.3-.26-.45-.6-.45-1.01s.15-.75.45-1.01c.3-.26.68-.38,1.16-.38s.87.13,1.17.39c.3.26.45.6.45,1.01s-.15.75-.45,1.01c-.3.26-.69.4-1.17.4Z"/>
    <path class="cls-2" d="M212.82,66.11v8.37c0,.21.04.36.11.46.07.1.18.17.33.2l.48.12c.23.07.35.2.35.37,0,.26-.17.38-.52.38h-3.94c-.17,0-.29-.03-.37-.1-.08-.07-.12-.16-.12-.28,0-.09.03-.17.09-.23.06-.07.16-.12.29-.15l.52-.12c.15-.04.26-.1.33-.2.07-.1.11-.25.11-.45v-6.81c0-.17-.03-.29-.08-.36-.06-.07-.15-.12-.28-.13l-.74-.03c-.13-.02-.23-.06-.28-.12-.05-.05-.08-.12-.08-.2,0-.1.03-.18.09-.24.06-.07.18-.13.35-.19l1.81-.64c.23-.09.42-.15.57-.19.15-.04.28-.05.4-.05.19,0,.33.05.43.15.1.1.14.25.14.43ZM212.5,68.45l-.44-.44.48-.42c.88-.79,1.65-1.35,2.31-1.67.66-.32,1.29-.48,1.9-.48.93,0,1.68.29,2.25.88s.85,1.38.85,2.38v5.75c0,.21.04.37.13.48.08.11.2.18.36.23l.46.11c.12.04.22.09.28.15.06.07.09.14.09.23,0,.12-.04.21-.12.28-.08.07-.2.1-.38.1h-3.95c-.34,0-.52-.13-.52-.38,0-.18.12-.3.35-.37l.51-.12c.16-.04.28-.11.35-.22.07-.11.1-.27.1-.47v-5.39c0-.73-.18-1.28-.54-1.65-.36-.37-.85-.55-1.45-.55-.37,0-.76.1-1.19.29-.43.19-.89.49-1.37.9l-.47.41Z"/>
    <path class="cls-2" d="M231.9,75.92c.6.26,1.04.57,1.3.94.26.37.4.81.4,1.33,0,.95-.5,1.72-1.5,2.32-1,.6-2.44.9-4.32.9-1.25,0-2.25-.11-3.01-.33-.76-.22-1.31-.53-1.65-.91-.34-.38-.51-.82-.51-1.3,0-.6.3-1.15.89-1.64.59-.49,1.64-.83,3.15-1.01l.24.33c-.81.1-1.42.32-1.83.67-.41.35-.62.74-.62,1.18,0,.64.28,1.17.84,1.57.56.4,1.52.6,2.89.6.78,0,1.41-.07,1.91-.21.5-.14.86-.35,1.1-.61.24-.26.36-.58.36-.95,0-.28-.1-.52-.29-.74s-.54-.41-1.02-.58-1.18-.33-2.08-.47c-1.09-.18-1.91-.36-2.47-.55s-.94-.41-1.14-.65-.3-.51-.3-.83c0-.26.07-.5.21-.74.14-.24.38-.45.71-.64.34-.19.81-.32,1.41-.41l.3.15c-.27.12-.46.25-.58.37-.11.12-.17.26-.17.4,0,.12.06.25.18.37s.42.25.89.38,1.22.28,2.26.44c1.05.16,1.88.37,2.48.63ZM232.08,71.64c-.42.64-1.01,1.13-1.75,1.49-.75.36-1.61.53-2.58.53s-1.77-.17-2.49-.52c-.71-.35-1.27-.82-1.66-1.42-.4-.6-.59-1.27-.59-2.01,0-.85.21-1.59.63-2.23.42-.63,1.01-1.13,1.75-1.49s1.61-.53,2.57-.53,1.79.17,2.5.52c.71.34,1.26.82,1.66,1.41s.59,1.27.59,2.02c0,.84-.21,1.58-.63,2.22ZM226.31,66.68c-.33.26-.56.63-.71,1.11-.15.48-.19,1.06-.14,1.74.05.7.19,1.3.43,1.8s.54.89.93,1.15c.38.26.83.38,1.34.37.74-.03,1.29-.33,1.66-.89.36-.56.5-1.35.42-2.36-.07-1.06-.35-1.88-.83-2.48-.48-.59-1.1-.88-1.86-.85-.49.01-.9.15-1.23.41ZM230.31,65.92c.32-.62.69-1.09,1.13-1.41.44-.32.9-.47,1.38-.47.42,0,.76.11,1.02.34.26.23.39.54.39.92,0,.33-.08.59-.24.79-.16.2-.38.3-.66.3-.2,0-.35-.05-.47-.14-.11-.1-.21-.21-.3-.33-.09-.12-.19-.24-.29-.34s-.25-.15-.43-.15c-.21,0-.41.08-.59.25s-.42.51-.71,1.03l-.59-.12.37-.68Z"/>
    <path class="cls-2" d="M249.76,61.03c0-.13.05-.23.14-.3.09-.07.23-.1.41-.1h3.51c.21,0,.35.04.44.1.09.07.13.17.13.29,0,.09-.03.17-.09.23-.06.07-.18.13-.35.19l-.46.14c-.21.08-.38.21-.51.38-.14.17-.27.46-.39.85l-3.95,11.33c-.07.21-.13.39-.16.52-.03.14-.05.28-.05.42v.46c0,.15-.04.26-.13.35-.08.08-.2.13-.34.13h-2.05c-.15,0-.27-.04-.36-.13-.08-.08-.13-.2-.13-.36v-.46c0-.12-.01-.24-.04-.36-.03-.12-.08-.28-.14-.45l-4.26-12.02c-.07-.2-.14-.34-.23-.43-.09-.09-.21-.16-.36-.21l-.47-.13c-.26-.09-.4-.24-.4-.43,0-.13.05-.23.14-.3.09-.07.23-.1.42-.1h4.73c.19,0,.33.04.42.1.09.07.14.17.14.3,0,.1-.04.19-.11.25-.07.06-.18.12-.33.16l-.89.15c-.19.04-.31.13-.35.25-.04.12,0,.32.09.61l4.28,12.17-.88.55,4.31-12.42c.12-.34.14-.59.07-.77-.07-.18-.27-.31-.59-.4l-.8-.14c-.14-.04-.25-.1-.32-.16-.07-.06-.11-.15-.11-.25Z"/>
    <path class="cls-2" d="M254.59,73.73c0-.87.39-1.59,1.17-2.14.78-.56,1.86-.84,3.24-.84.5,0,.96.05,1.38.14.42.09.79.21,1.11.36l-.18.61c-.31-.12-.62-.23-.94-.31s-.67-.13-1.05-.13c-.73,0-1.29.17-1.7.52-.41.34-.62.82-.62,1.42s.17,1.05.5,1.36c.33.31.76.47,1.28.47.49,0,.96-.11,1.42-.34.45-.22.85-.54,1.18-.95l.23.52c-.43.59-.99,1.05-1.68,1.38-.69.33-1.41.49-2.18.49-.93,0-1.69-.23-2.28-.69-.59-.46-.88-1.08-.88-1.85ZM261.16,74.66v-.22l-.14-.07v-6.28c0-.63-.16-1.12-.48-1.45-.32-.34-.77-.51-1.36-.51s-.98.11-1.25.34-.42.5-.42.83v.87c0,.35-.12.62-.35.81s-.55.29-.96.29c-.36,0-.63-.09-.82-.28-.19-.19-.29-.43-.29-.74,0-.45.18-.89.53-1.32.36-.43.87-.78,1.55-1.06.67-.28,1.49-.42,2.45-.42,1.25,0,2.19.27,2.79.81.61.54.91,1.26.91,2.16v5.95c0,.24.05.41.14.52.09.11.22.17.38.17.18,0,.31-.04.39-.13.08-.08.15-.17.2-.25.04-.04.08-.08.12-.12.04-.03.09-.05.15-.05.08,0,.14.03.18.08.04.06.06.13.06.23,0,.21-.07.43-.22.65-.15.22-.36.41-.64.57-.28.15-.63.23-1.05.23-.58,0-1.04-.14-1.37-.41-.33-.28-.5-.68-.5-1.21Z"/>
    <path class="cls-2" d="M275.87,68.31c0,.35-.12.65-.35.88-.23.23-.53.35-.91.35s-.66-.11-.86-.32-.3-.49-.3-.84v-.33c0-.52-.18-.94-.54-1.26s-.85-.48-1.48-.48c-.56,0-1.07.16-1.51.48-.44.32-.79.77-1.04,1.35-.25.58-.38,1.27-.38,2.05,0,.95.17,1.76.5,2.43.33.66.78,1.17,1.35,1.51s1.22.51,1.96.51,1.3-.16,1.81-.48c.51-.32.87-.74,1.09-1.26.1-.12.18-.21.24-.26.07-.05.14-.07.22-.07.1,0,.17.04.21.13.04.09.06.19.06.3-.05.6-.27,1.15-.65,1.65-.38.5-.89.89-1.53,1.19-.64.29-1.36.44-2.18.44-1.03,0-1.95-.22-2.73-.65-.79-.43-1.4-1.04-1.84-1.83-.44-.79-.66-1.71-.66-2.76s.22-1.99.67-2.84c.45-.84,1.08-1.51,1.89-2.01.81-.5,1.76-.75,2.84-.75.85,0,1.58.13,2.2.4.62.27,1.09.62,1.42,1.06.33.44.5.91.5,1.41Z"/>
    <path class="cls-2" d="M277.8,73.73c0-.87.39-1.59,1.17-2.14.78-.56,1.86-.84,3.24-.84.5,0,.96.05,1.38.14.42.09.79.21,1.11.36l-.18.61c-.31-.12-.62-.23-.94-.31s-.67-.13-1.05-.13c-.73,0-1.29.17-1.7.52-.41.34-.62.82-.62,1.42s.17,1.05.5,1.36c.33.31.76.47,1.28.47.49,0,.96-.11,1.42-.34.45-.22.85-.54,1.18-.95l.23.52c-.43.59-.99,1.05-1.68,1.38-.69.33-1.41.49-2.18.49-.93,0-1.69-.23-2.28-.69-.59-.46-.88-1.08-.88-1.85ZM284.37,74.66v-.22l-.14-.07v-6.28c0-.63-.16-1.12-.48-1.45-.32-.34-.77-.51-1.36-.51s-.98.11-1.25.34-.42.5-.42.83v.87c0,.35-.12.62-.35.81s-.55.29-.96.29c-.36,0-.63-.09-.82-.28-.19-.19-.29-.43-.29-.74,0-.45.18-.89.53-1.32.36-.43.87-.78,1.55-1.06.67-.28,1.49-.42,2.45-.42,1.25,0,2.19.27,2.79.81.61.54.91,1.26.91,2.16v5.95c0,.24.05.41.14.52.09.11.22.17.38.17.18,0,.31-.04.39-.13.08-.08.15-.17.2-.25.04-.04.08-.08.12-.12.04-.03.09-.05.15-.05.08,0,.14.03.18.08.04.06.06.13.06.23,0,.21-.07.43-.22.65-.15.22-.36.41-.64.57-.28.15-.63.23-1.05.23-.58,0-1.04-.14-1.37-.41-.33-.28-.5-.68-.5-1.21Z"/>
    <path class="cls-2" d="M290.21,66.59l-.57-.15c-.19-.05-.32-.11-.39-.18-.07-.07-.1-.15-.1-.24,0-.12.04-.21.12-.26.08-.06.19-.09.33-.09h.7c.2,0,.36-.03.48-.09s.23-.18.31-.35l.87-1.59c.11-.18.22-.3.33-.38.11-.08.23-.12.35-.12s.22.04.3.12c.07.08.11.19.11.34v9.69c0,.51.1.89.31,1.15.21.26.5.4.86.4.27,0,.48-.05.63-.14s.27-.2.35-.32c.08-.12.17-.23.24-.31.08-.09.17-.13.29-.13.1,0,.17.03.21.09.05.06.07.16.07.3,0,.32-.11.62-.34.9-.23.29-.54.52-.94.7-.4.18-.86.27-1.38.27-.81,0-1.45-.21-1.93-.63-.48-.42-.72-1.06-.72-1.91v-6.44c0-.18-.04-.32-.11-.42-.07-.09-.21-.17-.4-.22ZM292,66.55v-.88h3.46c.15,0,.27.03.35.08s.12.14.12.26c0,.15-.08.28-.24.38-.16.1-.41.15-.74.15h-2.96Z"/>
    <path class="cls-2" d="M301.37,66.11v8.37c0,.21.04.36.11.46.07.1.18.17.33.2l.49.11c.13.04.23.1.29.16s.09.14.09.24c0,.12-.04.21-.12.28-.08.07-.21.1-.39.1h-3.99c-.17,0-.29-.03-.37-.1-.08-.07-.12-.16-.12-.28,0-.09.03-.17.09-.23.06-.07.16-.12.29-.15l.52-.12c.15-.04.26-.1.33-.2.07-.1.11-.25.11-.45v-6.81c0-.17-.03-.29-.08-.36-.06-.07-.15-.12-.28-.13l-.74-.03c-.13-.02-.23-.06-.28-.12-.05-.05-.08-.12-.08-.2,0-.1.03-.18.09-.24.06-.07.18-.13.35-.19l1.81-.64c.24-.09.43-.15.58-.19.14-.04.27-.05.37-.05.2,0,.35.05.45.15.1.1.15.25.15.43ZM299.95,63.48c-.48,0-.86-.13-1.16-.4-.3-.26-.45-.6-.45-1.01s.15-.75.45-1.01c.3-.26.68-.38,1.16-.38s.87.13,1.17.39c.3.26.45.6.45,1.01s-.15.75-.45,1.01c-.3.26-.69.4-1.17.4Z"/>
    <path class="cls-2" d="M309.84,65.45c1.08,0,2.03.23,2.85.69.83.46,1.47,1.1,1.94,1.91.47.82.7,1.76.7,2.82s-.24,1.96-.71,2.77c-.47.81-1.13,1.46-1.96,1.92-.83.47-1.8.7-2.9.7s-2.03-.23-2.85-.69c-.82-.46-1.47-1.1-1.94-1.92s-.7-1.75-.7-2.81.24-1.98.71-2.79c.47-.81,1.13-1.45,1.96-1.91.83-.47,1.8-.7,2.9-.7ZM310.62,75.32c.61-.09,1.11-.34,1.49-.75.39-.42.64-.97.77-1.67.13-.7.11-1.52-.05-2.47-.16-.95-.43-1.74-.79-2.37-.37-.63-.81-1.08-1.33-1.36-.52-.28-1.1-.38-1.73-.28-.61.09-1.11.34-1.49.75-.38.41-.64.97-.77,1.67-.13.7-.11,1.52.05,2.48.16.95.43,1.73.79,2.37.37.63.81,1.08,1.33,1.36.52.28,1.1.37,1.73.29Z"/>
    <path class="cls-2" d="M320.92,66.11v8.37c0,.21.04.36.11.46.07.1.18.17.33.2l.48.12c.23.07.35.2.35.37,0,.26-.17.38-.52.38h-3.94c-.17,0-.29-.03-.37-.1-.08-.07-.12-.16-.12-.28,0-.09.03-.17.09-.23.06-.07.16-.12.29-.15l.52-.12c.15-.04.26-.1.33-.2.07-.1.11-.25.11-.45v-6.81c0-.17-.03-.29-.08-.36-.06-.07-.15-.12-.28-.13l-.74-.03c-.13-.02-.23-.06-.28-.12-.05-.05-.08-.12-.08-.2,0-.1.03-.18.09-.24.06-.07.18-.13.35-.19l1.81-.64c.23-.09.42-.15.57-.19.15-.04.28-.05.4-.05.19,0,.33.05.43.15.1.1.14.25.14.43ZM320.6,68.45l-.44-.44.48-.42c.88-.79,1.65-1.35,2.31-1.67.66-.32,1.29-.48,1.9-.48.93,0,1.68.29,2.25.88s.85,1.38.85,2.38v5.75c0,.21.04.37.13.48.08.11.2.18.36.23l.46.11c.12.04.22.09.28.15.06.07.09.14.09.23,0,.12-.04.21-.12.28-.08.07-.2.1-.38.1h-3.95c-.34,0-.52-.13-.52-.38,0-.18.12-.3.35-.37l.51-.12c.16-.04.28-.11.35-.22.07-.11.1-.27.1-.47v-5.39c0-.73-.18-1.28-.54-1.65-.36-.37-.85-.55-1.45-.55-.37,0-.76.1-1.19.29-.43.19-.89.49-1.37.9l-.47.41Z"/>
    <path class="cls-2" d="M346.06,63.54l.96.32-3.38,10.42c-.05.15-.09.29-.13.42s-.05.28-.05.45v.4c0,.15-.04.27-.12.36-.08.08-.19.13-.33.13h-1.89c-.15,0-.26-.04-.35-.13-.09-.08-.13-.2-.13-.36v-.4c0-.12-.01-.24-.03-.34-.02-.1-.06-.24-.12-.43l-3.81-12.17c-.06-.19-.13-.33-.22-.42-.09-.09-.21-.16-.36-.21l-.5-.14c-.15-.04-.26-.1-.31-.18s-.08-.16-.08-.25c0-.12.04-.21.13-.28.09-.07.23-.1.43-.1h4.58c.19,0,.33.04.42.1.09.07.14.17.14.29,0,.21-.13.34-.4.4l-.85.13c-.18.04-.29.12-.32.24-.03.12,0,.33.08.61l3.75,12.13-.9.67,3.79-11.66ZM353.04,61.03c0-.13.05-.23.14-.3.1-.07.23-.1.42-.1h3.38c.21,0,.35.04.43.11s.13.17.13.29c0,.1-.03.17-.08.23-.05.06-.17.12-.35.19l-.45.14c-.21.09-.38.22-.52.39-.14.17-.26.44-.37.82l-3.45,11.48c-.06.2-.1.36-.13.47-.03.12-.04.25-.04.4v.4c0,.15-.04.27-.12.36-.08.08-.19.13-.33.13h-2c-.15,0-.26-.04-.35-.13s-.13-.2-.13-.36v-.4c0-.12,0-.23-.01-.34,0-.11-.04-.27-.1-.47l-3.64-12.12c-.07-.23-.14-.39-.21-.47-.07-.08-.17-.14-.3-.18l-.49-.14c-.15-.04-.26-.1-.31-.16-.06-.06-.08-.14-.08-.23,0-.13.05-.23.14-.3.09-.07.23-.1.41-.1h4.48c.19,0,.33.04.42.1.09.07.14.17.14.3,0,.1-.04.19-.1.25-.07.07-.18.12-.32.15l-.83.12c-.17.04-.27.11-.31.22-.04.11-.01.32.08.62l3.61,12.11-.77.58,3.72-12.39c.1-.34.12-.59.05-.77-.07-.18-.26-.3-.59-.38l-.74-.13c-.15-.04-.25-.09-.31-.15-.06-.06-.09-.14-.09-.24Z"/>
    <path class="cls-2" d="M361.47,66.11v8.37c0,.21.04.36.11.46.07.1.18.17.33.2l.49.11c.13.04.23.1.29.16s.09.14.09.24c0,.12-.04.21-.12.28-.08.07-.21.1-.39.1h-3.99c-.17,0-.29-.03-.37-.1-.08-.07-.12-.16-.12-.28,0-.09.03-.17.09-.23.06-.07.16-.12.29-.15l.52-.12c.15-.04.26-.1.33-.2.07-.1.11-.25.11-.45v-6.81c0-.17-.03-.29-.08-.36-.06-.07-.15-.12-.28-.13l-.74-.03c-.13-.02-.23-.06-.28-.12-.05-.05-.08-.12-.08-.2,0-.1.03-.18.09-.24.06-.07.18-.13.35-.19l1.82-.64c.24-.09.43-.15.58-.19.14-.04.27-.05.37-.05.2,0,.35.05.45.15s.15.25.15.43ZM360.05,63.48c-.48,0-.86-.13-1.16-.4-.3-.26-.45-.6-.45-1.01s.15-.75.45-1.01c.3-.26.68-.38,1.16-.38s.87.13,1.17.39c.3.26.45.6.45,1.01s-.15.75-.45,1.01c-.3.26-.69.4-1.17.4Z"/>
    <path class="cls-2" d="M368.33,66.27c-.55,0-.98.14-1.3.42-.32.28-.48.65-.48,1.11,0,.29.07.54.2.76s.37.43.71.62c.34.19.84.36,1.47.52,1.02.24,1.82.52,2.39.86.58.34.98.73,1.21,1.16.24.43.35.91.35,1.44,0,.93-.34,1.68-1.01,2.25s-1.63.85-2.88.85c-.46,0-.83-.04-1.13-.12s-.54-.16-.74-.24c-.2-.08-.37-.12-.53-.12s-.26.04-.34.13c-.08.08-.16.17-.23.25-.07.08-.18.12-.31.12-.1,0-.18-.03-.24-.09-.06-.06-.11-.17-.17-.34l-.81-2.3c-.07-.21-.09-.38-.06-.51.03-.14.11-.23.25-.28.14-.05.26-.05.37,0,.11.06.2.15.28.29.32.6.67,1.08,1.05,1.42.38.35.78.6,1.2.74s.85.22,1.29.22c.7,0,1.22-.15,1.57-.44.35-.29.52-.68.52-1.17,0-.29-.07-.55-.22-.79-.15-.24-.42-.46-.8-.67s-.94-.4-1.66-.57c-.89-.21-1.61-.47-2.14-.78-.53-.31-.91-.68-1.14-1.11-.23-.43-.35-.94-.35-1.51s.15-1.1.44-1.55c.29-.45.71-.8,1.24-1.05.54-.25,1.16-.38,1.88-.38.46,0,.84.04,1.13.13.29.09.53.18.72.27.19.09.35.14.5.14.16,0,.29-.05.37-.14s.17-.18.24-.27.17-.13.3-.13c.09,0,.16.03.23.09s.11.17.14.31l.63,2.19c.05.22.07.4.05.54-.01.14-.1.24-.24.3-.13.05-.25.04-.35-.03s-.21-.2-.32-.37c-.42-.8-.92-1.37-1.5-1.7-.58-.33-1.18-.5-1.79-.5Z"/>
    <path class="cls-2" d="M378.47,60.38v14.1c0,.21.04.36.11.46.07.1.18.17.33.2l.48.12c.23.07.35.2.35.37,0,.26-.17.38-.52.38h-3.94c-.17,0-.29-.03-.37-.1-.08-.07-.12-.16-.12-.28,0-.09.03-.17.09-.23.06-.07.16-.12.29-.15l.52-.12c.15-.04.26-.1.33-.2.07-.1.11-.25.11-.45v-12.54c0-.17-.03-.29-.08-.37s-.15-.12-.28-.14l-.74-.03c-.13-.01-.23-.05-.28-.1-.05-.05-.08-.13-.08-.21,0-.1.03-.17.09-.24.06-.06.18-.12.35-.18l1.81-.64c.23-.09.42-.15.57-.19.15-.04.28-.05.4-.05.19,0,.33.05.43.15.1.1.14.25.14.43ZM378.15,68.45l-.44-.44.48-.42c.89-.79,1.66-1.35,2.32-1.67.66-.32,1.29-.48,1.9-.48.93,0,1.68.29,2.25.88.57.59.85,1.38.85,2.38v5.75c0,.21.04.37.13.48s.2.18.36.23l.46.11c.12.04.22.09.28.15.06.07.09.14.09.23,0,.12-.04.21-.12.28-.08.07-.2.1-.38.1h-3.95c-.34,0-.52-.13-.52-.38,0-.18.12-.3.35-.37l.51-.12c.16-.04.28-.11.35-.22.07-.11.1-.27.1-.47v-5.39c0-.73-.18-1.28-.54-1.65-.36-.37-.85-.55-1.45-.55-.37,0-.76.1-1.19.29-.42.19-.88.49-1.38.9l-.47.41Z"/>
    <path class="cls-2" d="M398.15,69.57c0,.34-.1.61-.3.79-.2.18-.5.27-.89.27h-7.03v-.72h5.29c.37,0,.55-.16.55-.48,0-.98-.21-1.74-.64-2.29-.42-.55-.99-.83-1.7-.83-.56,0-1.05.16-1.47.48-.42.32-.76.77-1,1.35s-.36,1.27-.36,2.05c0,1.46.35,2.57,1.05,3.32.7.75,1.62,1.13,2.76,1.13.73,0,1.36-.16,1.89-.48.54-.32.91-.75,1.13-1.29.1-.12.17-.21.24-.26.06-.05.13-.07.21-.07.1,0,.18.04.22.13s.07.19.07.31c-.04.6-.26,1.15-.66,1.65-.4.5-.92.9-1.58,1.19s-1.4.45-2.24.45c-1.03,0-1.95-.22-2.73-.65-.79-.43-1.4-1.04-1.84-1.83-.44-.79-.66-1.71-.66-2.76s.21-2.03.64-2.87c.43-.84,1.03-1.51,1.83-2,.79-.49,1.73-.73,2.83-.73.9,0,1.68.18,2.34.53.66.35,1.17.84,1.53,1.46.36.62.54,1.34.54,2.15Z"/>
    <path class="cls-2" d="M403.92,66.27c-.55,0-.98.14-1.3.42-.32.28-.48.65-.48,1.11,0,.29.07.54.2.76s.37.43.71.62c.34.19.84.36,1.47.52,1.02.24,1.82.52,2.39.86.58.34.98.73,1.22,1.16s.35.91.35,1.44c0,.93-.34,1.68-1.01,2.25s-1.63.85-2.88.85c-.45,0-.83-.04-1.13-.12s-.54-.16-.74-.24c-.2-.08-.37-.12-.53-.12s-.26.04-.34.13c-.08.08-.16.17-.23.25-.07.08-.18.12-.31.12-.1,0-.18-.03-.24-.09-.06-.06-.11-.17-.17-.34l-.81-2.3c-.07-.21-.09-.38-.06-.51.03-.14.11-.23.25-.28.14-.05.26-.05.37,0,.11.06.2.15.28.29.32.6.67,1.08,1.05,1.42.38.35.78.6,1.2.74s.85.22,1.29.22c.7,0,1.22-.15,1.57-.44.35-.29.52-.68.52-1.17,0-.29-.07-.55-.22-.79s-.41-.46-.8-.67-.94-.4-1.66-.57c-.89-.21-1.61-.47-2.14-.78-.53-.31-.91-.68-1.14-1.11-.23-.43-.35-.94-.35-1.51s.15-1.1.44-1.55c.29-.45.71-.8,1.24-1.05s1.16-.38,1.88-.38c.46,0,.84.04,1.13.13s.53.18.71.27c.19.09.35.14.5.14.16,0,.29-.05.37-.14s.17-.18.24-.27c.07-.09.17-.13.3-.13.09,0,.16.03.23.09.06.06.11.17.14.31l.63,2.19c.05.22.07.4.06.54-.01.14-.1.24-.24.3-.13.05-.25.04-.35-.03-.1-.07-.21-.2-.32-.37-.42-.8-.92-1.37-1.5-1.7-.58-.33-1.18-.5-1.79-.5Z"/>
    <path class="cls-2" d="M428.93,72.16c0,.48-.14.98-.41,1.47-.27.5-.67.96-1.18,1.38-.52.42-1.14.76-1.88,1.02-.74.26-1.58.39-2.52.39-1.56,0-2.91-.34-4.04-1.03s-2.01-1.63-2.62-2.83c-.61-1.2-.92-2.58-.92-4.14,0-1.18.18-2.27.54-3.26.36-.99.87-1.85,1.53-2.59.66-.74,1.43-1.31,2.32-1.71s1.85-.6,2.89-.6c.77,0,1.39.08,1.87.24.48.16.85.32,1.12.47.27.16.47.24.61.24.18,0,.3-.07.38-.2.08-.13.15-.26.23-.4s.2-.2.38-.2c.1,0,.19.03.26.1.07.07.14.18.19.34l1.18,3.73c.04.15.03.29-.04.4-.07.11-.18.18-.32.2-.14.02-.26,0-.37-.06-.11-.06-.2-.16-.26-.3-.41-.87-.86-1.57-1.36-2.1-.5-.53-1.04-.91-1.63-1.15s-1.25-.36-1.96-.36-1.37.16-1.97.47c-.61.31-1.13.76-1.58,1.34-.45.58-.79,1.28-1.04,2.09-.25.81-.37,1.72-.37,2.72,0,1.5.25,2.79.75,3.85.5,1.06,1.18,1.87,2.04,2.43.86.56,1.83.84,2.92.84s2-.25,2.77-.74c.77-.5,1.35-1.18,1.74-2.06.07-.14.14-.23.22-.29.08-.05.17-.07.28-.05.09.01.16.05.2.11s.07.14.07.24Z"/>
    <path class="cls-2" d="M436.19,65.45c1.08,0,2.03.23,2.86.69.82.46,1.47,1.1,1.94,1.91.47.82.7,1.76.7,2.82s-.24,1.96-.71,2.77c-.47.81-1.13,1.46-1.96,1.92-.83.47-1.8.7-2.9.7s-2.03-.23-2.85-.69c-.83-.46-1.47-1.1-1.94-1.92s-.7-1.75-.7-2.81.24-1.98.71-2.79c.47-.81,1.13-1.45,1.96-1.91.83-.47,1.8-.7,2.9-.7ZM436.97,75.32c.61-.09,1.11-.34,1.49-.75.38-.42.64-.97.77-1.67.13-.7.11-1.52-.05-2.47-.16-.95-.42-1.74-.79-2.37-.37-.63-.81-1.08-1.33-1.36-.52-.28-1.1-.38-1.73-.28-.61.09-1.11.34-1.49.75-.39.41-.64.97-.77,1.67-.13.7-.11,1.52.05,2.48.16.95.42,1.73.79,2.37.37.63.81,1.08,1.33,1.36.52.28,1.1.37,1.73.29Z"/>
    <path class="cls-2" d="M447.26,66.11v8.37c0,.21.04.36.11.46.07.1.18.17.33.2l.48.12c.24.07.35.2.35.37,0,.26-.17.38-.52.38h-3.94c-.17,0-.29-.03-.37-.1-.08-.07-.12-.16-.12-.28,0-.09.03-.17.09-.23.06-.07.16-.12.29-.15l.52-.12c.15-.04.26-.1.33-.2.07-.1.11-.25.11-.45v-6.81c0-.17-.03-.29-.08-.36-.06-.07-.15-.12-.28-.13l-.74-.03c-.13-.02-.23-.06-.28-.12-.06-.05-.08-.12-.08-.2,0-.1.03-.18.09-.24.06-.07.18-.13.35-.19l1.81-.64c.23-.09.42-.15.57-.19.15-.04.28-.05.4-.05.19,0,.33.05.43.15.09.1.14.25.14.43ZM446.95,68.45l-.44-.44.48-.42c.89-.79,1.66-1.35,2.3-1.67.65-.32,1.28-.48,1.89-.48.93,0,1.68.29,2.24.88.56.59.84,1.38.84,2.38v5.75c0,.21.04.37.13.48.08.11.2.18.36.23l.45.11c.22.08.33.21.33.37,0,.26-.16.38-.49.38h-3.89c-.34,0-.52-.13-.52-.38,0-.18.12-.3.35-.37l.51-.12c.16-.04.28-.11.35-.22.07-.11.1-.27.1-.47v-5.39c0-.73-.18-1.28-.53-1.65-.36-.37-.83-.55-1.44-.55-.37,0-.76.1-1.18.29s-.87.49-1.36.9l-.47.41ZM453.94,68.45l-.43-.44.47-.42c.89-.79,1.66-1.35,2.31-1.67.65-.32,1.28-.48,1.88-.48.93,0,1.68.29,2.24.88.56.59.84,1.38.84,2.38v5.75c0,.21.04.37.13.48.08.11.2.18.36.23l.46.11c.13.04.23.09.29.15.06.07.09.14.09.23,0,.12-.04.21-.12.28-.08.07-.21.1-.38.1h-3.94c-.34,0-.52-.13-.52-.38,0-.18.11-.3.34-.37l.51-.12c.16-.04.28-.11.35-.22.07-.11.11-.27.11-.47v-5.39c0-.73-.18-1.28-.53-1.65-.36-.37-.83-.55-1.44-.55-.37,0-.77.1-1.19.29s-.87.49-1.35.9l-.48.41Z"/>
    <path class="cls-2" d="M473.89,69.57c0,.34-.1.61-.3.79-.2.18-.5.27-.89.27h-7.03v-.72h5.29c.37,0,.55-.16.55-.48,0-.98-.21-1.74-.64-2.29-.42-.55-.99-.83-1.7-.83-.56,0-1.05.16-1.47.48-.42.32-.76.77-1,1.35s-.36,1.27-.36,2.05c0,1.46.35,2.57,1.05,3.32.7.75,1.62,1.13,2.76,1.13.73,0,1.36-.16,1.89-.48.54-.32.91-.75,1.13-1.29.1-.12.17-.21.24-.26.06-.05.13-.07.21-.07.1,0,.18.04.22.13s.07.19.07.31c-.04.6-.26,1.15-.66,1.65-.4.5-.92.9-1.58,1.19s-1.4.45-2.24.45c-1.03,0-1.95-.22-2.73-.65-.79-.43-1.4-1.04-1.84-1.83-.44-.79-.66-1.71-.66-2.76s.21-2.03.64-2.87c.43-.84,1.03-1.51,1.83-2,.79-.49,1.73-.73,2.83-.73.9,0,1.68.18,2.34.53.66.35,1.17.84,1.53,1.46.36.62.54,1.34.54,2.15Z"/>
    <path class="cls-2" d="M483.29,60.62h7.85c.25,0,.45-.04.59-.12.14-.08.27-.15.38-.23.11-.07.24-.11.39-.11.19,0,.34.05.45.14.11.1.19.25.25.47l.75,3.47c.04.18.03.32-.03.43-.06.11-.16.18-.31.21-.14.03-.26.01-.37-.04s-.2-.17-.27-.32c-.34-.84-.64-1.48-.9-1.9s-.52-.71-.79-.85c-.28-.15-.62-.22-1.04-.22h-1.74v12.88c0,.15.05.28.14.38.1.1.23.17.41.21l.71.13c.28.08.42.23.42.45,0,.27-.18.41-.54.41h-4.86c-.18,0-.32-.04-.41-.11-.09-.07-.13-.17-.13-.3,0-.22.14-.37.42-.45l.72-.13c.18-.04.32-.12.41-.21.09-.1.14-.23.14-.38v-12.88h-1.74c-.41,0-.75.07-1.03.22s-.54.43-.79.85-.56,1.05-.91,1.9c-.07.15-.15.26-.26.32-.11.06-.23.07-.37.04-.15-.03-.25-.1-.3-.21-.06-.11-.07-.25-.04-.43l.75-3.47c.06-.22.14-.38.25-.47.11-.09.25-.14.45-.14.15,0,.29.04.4.11.11.07.24.15.38.23.15.08.34.12.58.12Z"/>
    <path class="cls-2" d="M498.66,66.11l.13,2.55v5.82c0,.19.04.33.13.43.08.1.23.16.43.19l.99.14c.15.02.27.07.35.13.08.07.12.16.12.28s-.04.21-.13.28c-.09.07-.22.1-.38.1h-4.67c-.17,0-.29-.03-.37-.1-.08-.07-.12-.16-.12-.28,0-.09.03-.17.09-.23.06-.07.16-.12.29-.15l.52-.12c.15-.04.26-.1.33-.2.07-.1.11-.25.11-.45v-6.79c0-.17-.03-.29-.08-.37-.06-.08-.15-.12-.28-.14l-.74-.03c-.13-.01-.23-.05-.28-.1-.06-.05-.08-.13-.08-.21,0-.1.03-.17.1-.24.07-.06.18-.12.34-.18l1.78-.64c.29-.1.51-.17.66-.21.14-.04.25-.05.33-.05.14,0,.25.04.32.13s.12.24.13.45ZM498.39,70.27c0-1.04.15-1.92.46-2.64.31-.72.71-1.26,1.2-1.63s1.02-.56,1.58-.56c.67,0,1.19.18,1.56.55.37.37.56.88.56,1.53,0,.51-.11.89-.32,1.15-.22.26-.5.39-.84.39s-.61-.1-.8-.29c-.19-.19-.29-.46-.29-.81v-.37c0-.25-.07-.43-.18-.56-.11-.12-.31-.18-.58-.18-.32,0-.62.13-.92.38-.3.25-.55.63-.74,1.13-.19.5-.29,1.14-.29,1.91h-.4Z"/>
    <path class="cls-2" d="M506.12,73.02v-5.32c0-.17-.03-.29-.08-.37s-.15-.12-.28-.14l-.74-.03c-.13-.01-.23-.05-.28-.1-.05-.05-.08-.13-.08-.21,0-.1.03-.17.09-.24.06-.06.18-.12.35-.18l1.82-.64c.24-.09.43-.15.58-.19.14-.04.27-.06.37-.06.2,0,.35.05.45.15.1.1.15.25.15.43v6.54c0,.73.18,1.28.53,1.64.36.36.83.54,1.42.54.36,0,.75-.09,1.17-.29.42-.19.88-.49,1.36-.89l.47-.41.44.44-.48.42c-.87.79-1.64,1.35-2.29,1.67s-1.29.48-1.89.48c-.92,0-1.66-.29-2.22-.88s-.85-1.38-.85-2.38ZM513.08,74.72v-.7l-.07-.05v-6.27c0-.17-.03-.29-.09-.37s-.15-.12-.28-.14l-.75-.03c-.12-.01-.21-.05-.27-.1s-.08-.13-.08-.21c0-.1.03-.17.09-.24.06-.06.18-.12.35-.18l1.8-.64c.23-.09.42-.15.57-.19.15-.04.28-.06.4-.06.19,0,.33.05.43.15s.14.25.14.43v8.36c0,.21.04.36.12.46.08.1.18.17.32.2l.5.11c.13.04.23.1.3.16.07.06.1.14.1.24,0,.12-.04.21-.13.28-.08.07-.21.1-.39.1h-1.91c-.35,0-.63-.12-.84-.35-.21-.23-.31-.55-.31-.95Z"/>
    <path class="cls-2" d="M528.12,69.57c0,.34-.1.61-.3.79-.2.18-.5.27-.89.27h-7.03v-.72h5.29c.37,0,.55-.16.55-.48,0-.98-.21-1.74-.64-2.29-.42-.55-.99-.83-1.7-.83-.56,0-1.05.16-1.47.48-.42.32-.76.77-1,1.35s-.36,1.27-.36,2.05c0,1.46.35,2.57,1.05,3.32.7.75,1.62,1.13,2.76,1.13.73,0,1.36-.16,1.89-.48.54-.32.91-.75,1.13-1.29.1-.12.17-.21.24-.26.06-.05.13-.07.21-.07.1,0,.18.04.22.13s.07.19.07.31c-.04.6-.26,1.15-.66,1.65-.4.5-.92.9-1.58,1.19s-1.4.45-2.24.45c-1.03,0-1.95-.22-2.73-.65-.79-.43-1.4-1.04-1.84-1.83-.44-.79-.66-1.71-.66-2.76s.21-2.03.64-2.87c.43-.84,1.03-1.51,1.83-2,.79-.49,1.73-.73,2.83-.73.9,0,1.68.18,2.34.53.66.35,1.17.84,1.53,1.46.36.62.54,1.34.54,2.15Z"/>
    <path class="cls-2" d="M532.45,76.22c-.3,0-.57-.08-.82-.23-.25-.15-.44-.36-.59-.61s-.22-.53-.22-.82c0-.31.07-.59.22-.84s.34-.45.59-.6c.25-.15.52-.22.82-.22s.58.07.83.22c.25.15.44.35.58.6.14.25.21.53.21.84s-.07.57-.21.82c-.14.25-.34.46-.58.61-.25.15-.52.23-.83.23ZM532.45,59.76c.51,0,.89.13,1.12.38s.35.59.35,1c0,.15,0,.32-.03.49-.02.17-.05.35-.08.52l-.84,8.39c-.04.23-.11.39-.19.5-.08.1-.19.15-.34.15s-.26-.05-.34-.15c-.08-.1-.14-.27-.19-.5l-.85-8.39c-.04-.18-.06-.35-.08-.52-.02-.17-.03-.33-.03-.49,0-.41.12-.74.36-1,.24-.26.61-.38,1.13-.38Z"/>
  </g>
  <g>
    <path class="cls-3" d="M304.9,23.35c-3.29-1.59-6.58-3.17-9.87-4.76l8.67,6.68-9.87,4.76,10.65-2.77-2.34,10.58,4.37-9.87,6.93,8.45-5.04-9.73c3.26.03,10.94-.07,10.94-.07.08,0-10.73-2.1-10.73-2.1l6.75-8.56-8.38,7.1c-.78-3.55-1.56-7.1-2.35-10.65.09,3.65.19,7.29.28,10.94Z"/>
    <path class="cls-3" d="M308.38,26.69c1.68,3.24,3.36,6.49,5.04,9.73l-6.93-8.45-4.37,9.87,2.34-10.58-10.65,2.77,9.87-4.76-8.67-6.68,9.87,4.76-.28-10.94,2.35,10.65,8.38-7.1-6.75,8.56c3.58.7,7.15,1.4,10.73,2.1-3.65.02-7.29.05-10.94.07Z"/>
  </g>
</svg>